<svg width="16" height="17" viewBox="0 0 16 17" fill="none" xmlns="http://www.w3.org/2000/svg">
<g clip-path="url(#clip0_3805_900)">
<path d="M7.975 1.88281C8.60656 1.95316 8.76088 2.12242 9.18 2.58906C9.63683 3.07896 10.0906 3.5437 10.6 3.97906C11.577 4.8232 11.577 4.8232 12 5.29906C12 5.45746 12 5.61586 12 5.77906C11.1024 5.77906 10.2048 5.77906 9.28 5.77906C9.28371 6.19115 9.28743 6.60324 9.29125 7.02781C9.29374 7.42601 9.29569 7.82422 9.29758 8.22242C9.29919 8.49961 9.30137 8.7768 9.30414 9.05398C9.30801 9.45193 9.30984 9.84985 9.31125 10.2478C9.3129 10.3722 9.31455 10.4965 9.31625 10.6246C9.31632 10.9297 9.29957 11.2346 9.28 11.5391C8.96 11.8591 8.96 11.8591 8.52 11.9016C8.3484 11.9007 8.1768 11.8999 8 11.8991C7.7426 11.9003 7.7426 11.9003 7.48 11.9016C7.04 11.8591 7.04 11.8591 6.72 11.5391C6.69197 11.1031 6.68296 10.6836 6.68875 10.2478C6.6892 10.1204 6.68966 9.99302 6.69012 9.86176C6.69192 9.45417 6.69593 9.04664 6.7 8.63906C6.7016 8.36302 6.70306 8.08698 6.70438 7.81094C6.70763 7.13361 6.7139 6.4564 6.72 5.77906C5.8224 5.77906 4.9248 5.77906 4 5.77906C4.17331 5.08581 4.31198 4.93 4.81 4.44906C5.00429 4.26096 5.00429 4.26096 5.2025 4.06906C5.66162 3.6417 6.12853 3.22601 6.60687 2.82031C6.90472 2.56776 6.90472 2.56776 7.22 2.18906C7.52 1.93906 7.52 1.93906 7.975 1.88281Z" fill="#008C86" fill-opacity="0.7"/>
<path d="M2.58865 14.5884C2.70344 14.5888 2.81824 14.5892 2.93651 14.5896C3.05751 14.5888 3.17851 14.588 3.30318 14.5872C3.70431 14.5849 4.10541 14.5851 4.50655 14.5855C4.78474 14.5848 5.06294 14.5841 5.34114 14.5834C5.92476 14.5822 6.50836 14.5822 7.09198 14.5831C7.8406 14.584 8.58915 14.5813 9.33776 14.5776C9.91246 14.5752 10.4872 14.5751 11.0619 14.5756C11.3379 14.5755 11.6139 14.5747 11.89 14.5731C12.2757 14.5711 12.6614 14.5722 13.0471 14.574C13.1616 14.5728 13.2761 14.5716 13.394 14.5703C13.8619 14.5753 14.17 14.5827 14.5587 14.8567C14.7222 15.1136 14.7222 15.1136 14.6922 15.4436C14.5622 15.7536 14.5622 15.7536 14.2422 16.0736C13.8449 16.1061 13.4654 16.1189 13.0678 16.1175C12.8863 16.1188 12.8863 16.1188 12.7012 16.12C12.3 16.1222 11.8989 16.1221 11.4978 16.1217C11.2196 16.1223 10.9414 16.123 10.6632 16.1238C10.0796 16.125 9.49599 16.1249 8.91237 16.1241C8.16375 16.1232 7.41519 16.1259 6.66659 16.1296C6.09188 16.1319 5.51719 16.1321 4.94248 16.1316C4.66645 16.1317 4.39042 16.1325 4.11439 16.1341C3.72862 16.1361 3.34298 16.135 2.95721 16.1332C2.78551 16.135 2.78551 16.135 2.61034 16.1369C2.14246 16.1319 1.83437 16.1245 1.44561 15.8505C1.28217 15.5936 1.28217 15.5936 1.31217 15.2636C1.59014 14.6007 1.91956 14.5957 2.58865 14.5884Z" fill="#008C86" fill-opacity="0.7"/>
</g>
<defs>
<clipPath id="clip0_3805_900">
<rect width="16" height="16" fill="white" transform="translate(0 0.5)"/>
</clipPath>
</defs>
</svg>
